<svg xmlns="http://www.w3.org/2000/svg" width="655.359" height="655.359" fill-rule="evenodd" clip-rule="evenodd" image-rendering="optimizeQuality" shape-rendering="geometricPrecision" text-rendering="geometricPrecision" viewBox="0 0 6.827 6.827" id="tumbler">
  <rect width="6.827" height="6.827" fill="#3949ab" rx="1.456" ry="1.456"></rect>
  <path fill="#f4f4f4" d="M3.626 2.283v-.87h-.561c-.159.398-.188.913-.785.87v.701h.412c.007.987.007 1.495.007 1.521 0 .428.266.744.676.844.16.044.334.064.509.064.225-.007.444-.045.663-.116v-.825c-.128.04-.245.072-.348.103a.486.486 0 0 1-.503-.109c-.068-.104-.07-.265-.07-.386V2.984h.895v-.7h-.895z"></path>
</svg>
