<svg xmlns="http://www.w3.org/2000/svg" viewBox="0 0 25.143 28" id="youtube">
  <path d="M7.924 10.724H6.316V6.383L4.306 0h1.673L7.12 4.212 8.229 0h1.623L7.924 6.383v4.341zm6.563-2.604c0 .933-.128 1.447-.45 1.897-.37.499-1.013.82-1.688.82-.676 0-1.319-.321-1.689-.82-.321-.45-.45-.964-.45-1.897V5.338c0-.933.128-1.447.45-1.898.37-.498 1.013-.82 1.689-.82.675 0 1.318.322 1.688.82.321.45.45.965.45 1.898V8.12zm-2.83.289c0 .772.209 1.11.692 1.11.482 0 .691-.338.691-1.11V5.048c0-.772-.209-1.109-.691-1.109s-.692.337-.692 1.109v3.361zm8.187 2.315h-1.447v-.868c-.676.74-1.077.981-1.656.981-.353 0-.627-.129-.804-.37-.209-.306-.257-.563-.257-1.511V2.733h1.447v5.885c0 .467 0 .547.048.659a.31.31 0 0 0 .306.242c.306 0 .579-.209.916-.676v-6.11h1.447v7.991zM15.27 18.506c-.244 0-.471.114-.731.357v4.922c.26.244.487.358.731.358s.439-.114.52-.292c.097-.195.114-.326.114-.894v-3.266c0-.569-.017-.715-.114-.894-.082-.178-.277-.291-.52-.291zm5.429 0c-.504 0-.732.357-.732 1.12v.747h1.446v-.747c.001-.78-.226-1.12-.714-1.12z"></path>
  <path d="M22.097 12H3.046S0 12.183 0 16.571v6.858C0 27.817 3.046 28 3.046 28h19.052s3.046-.183 3.046-4.571v-6.858C25.143 12.183 22.097 12 22.097 12zM7.369 16.035H5.614v9.326H3.989v-9.326H2.267v-1.511h5.102v1.511zm4.437 9.327h-1.463v-.877c-.682.747-1.089.991-1.674.991-.357 0-.634-.13-.812-.374-.211-.309-.26-.569-.26-1.527v-6.288H9.06v5.946c0 .472 0 .552.048.666a.314.314 0 0 0 .309.244c.309 0 .585-.212.926-.683v-6.174h1.463v8.076zm5.559-2.421c0 1.089-.048 1.462-.26 1.884-.211.423-.585.65-1.056.65-.552 0-.975-.243-1.511-.894v.78h-1.463V14.525h1.463v3.541c.536-.65.958-.894 1.511-.894.471 0 .845.228 1.056.65.212.423.26.796.26 1.884v3.235zm5.511-1.349h-2.908v1.429c0 .763.228 1.121.732 1.121a.634.634 0 0 0 .601-.374c.065-.163.081-.244.081-.91 0-.032 0-.146.016-.292h1.479v.374c0 .894-.081 1.251-.374 1.658-.39.552-1.056.877-1.771.877-.698 0-1.381-.325-1.755-.829-.341-.455-.471-.991-.471-1.917v-2.81c0-.943.13-1.463.455-1.918.374-.503 1.056-.829 1.739-.829.698 0 1.332.309 1.722.829.325.455.455.975.455 1.918v1.673z"></path>
</svg>
